<svg width="1292" height="704" viewBox="0 0 1292 704" fill="none" xmlns="http://www.w3.org/2000/svg">
<g opacity="0.09" clip-path="url(#clip0_213_45)">
<line x1="-127.617" y1="702.997" x2="1383.96" y2="702.997" stroke="#A6B4FC" stroke-width="1.2607"/>
<line x1="-127.617" y1="380.259" x2="1383.96" y2="380.259" stroke="#A6B4FC" stroke-width="1.2607"/>
<line x1="-127.617" y1="57.5189" x2="1383.96" y2="57.5189" stroke="#A6B4FC" stroke-width="1.2607"/>
<line x1="-127.617" y1="541.627" x2="1383.96" y2="541.627" stroke="#A6B4FC" stroke-width="1.2607"/>
<line x1="-127.617" y1="218.889" x2="1383.96" y2="218.889" stroke="#A6B4FC" stroke-width="1.2607"/>
<line x1="-127.617" y1="622.312" x2="1383.96" y2="622.312" stroke="#A6B4FC" stroke-width="1.2607"/>
<line x1="-127.617" y1="299.574" x2="1383.96" y2="299.574" stroke="#A6B4FC" stroke-width="1.2607"/>
<line x1="-127.617" y1="460.942" x2="1383.96" y2="460.942" stroke="#A6B4FC" stroke-width="1.2607"/>
<line x1="-127.617" y1="138.204" x2="1383.96" y2="138.204" stroke="#A6B4FC" stroke-width="1.2607"/>
<line x1="565.139" y1="29.1547" x2="565.139" y2="1196.56" stroke="#A6B4FC" stroke-width="1.2607"/>
<line x1="242.398" y1="29.1545" x2="242.398" y2="1196.56" stroke="#A6B4FC" stroke-width="1.2607"/>
<line x1="887.875" y1="29.1547" x2="887.875" y2="1196.56" stroke="#A6B4FC" stroke-width="1.2607"/>
<line x1="1210.62" y1="29.1547" x2="1210.62" y2="1196.56" stroke="#A6B4FC" stroke-width="1.2607"/>
<line x1="81.0283" y1="29.1547" x2="81.0282" y2="1196.56" stroke="#A6B4FC" stroke-width="1.2607"/>
<line x1="726.504" y1="29.1547" x2="726.504" y2="1196.56" stroke="#A6B4FC" stroke-width="1.2607"/>
<line x1="403.769" y1="29.1547" x2="403.768" y2="1196.56" stroke="#A6B4FC" stroke-width="1.2607"/>
<line x1="1049.25" y1="29.1545" x2="1049.24" y2="1196.56" stroke="#A6B4FC" stroke-width="1.2607"/>
<line x1="0.345681" y1="29.1547" x2="0.34563" y2="1196.56" stroke="#A6B4FC" stroke-width="1.2607"/>
<line x1="645.822" y1="29.1545" x2="645.822" y2="1196.56" stroke="#A6B4FC" stroke-width="1.2607"/>
<line x1="323.082" y1="29.1547" x2="323.081" y2="1196.56" stroke="#A6B4FC" stroke-width="1.2607"/>
<line x1="968.562" y1="29.1547" x2="968.562" y2="1196.56" stroke="#A6B4FC" stroke-width="1.2607"/>
<line x1="1291.3" y1="29.1547" x2="1291.3" y2="1196.56" stroke="#A6B4FC" stroke-width="1.2607"/>
<line x1="161.716" y1="29.1547" x2="161.716" y2="1196.56" stroke="#A6B4FC" stroke-width="1.2607"/>
<line x1="807.192" y1="29.1547" x2="807.192" y2="1196.56" stroke="#A6B4FC" stroke-width="1.2607"/>
<line x1="484.452" y1="29.1547" x2="484.452" y2="1196.56" stroke="#A6B4FC" stroke-width="1.2607"/>
<line x1="1129.93" y1="29.1547" x2="1129.93" y2="1196.56" stroke="#A6B4FC" stroke-width="1.2607"/>
</g>
<path d="M0.557617 591.146L894.019 591.146C916.111 591.146 934.019 573.237 934.019 551.146V135.246C934.019 113.155 916.111 95.2463 894.019 95.2464L445.148 95.2464C423.057 95.2464 405.148 113.155 405.148 135.246V467.387C405.148 489.479 423.057 507.387 445.148 507.387H1291.06" stroke="#A6B4FC" stroke-width="4"/>
<g filter="url(#filter0_f_213_45)">
<circle cx="789.215" cy="600.705" r="35.7823" fill="#6366F1"/>
</g>
<g filter="url(#filter1_b_213_45)">
<mask id="path-29-inside-1_213_45" fill="white">
<path d="M725.874 552.258C725.874 546.735 730.351 542.258 735.874 542.258H796.557C802.08 542.258 806.557 546.735 806.557 552.258V613.475C806.557 618.998 802.08 623.475 796.557 623.475H735.874C730.351 623.475 725.874 618.998 725.874 613.475V552.258Z"/>
</mask>
<path d="M725.874 552.258C725.874 546.735 730.351 542.258 735.874 542.258H796.557C802.08 542.258 806.557 546.735 806.557 552.258V613.475C806.557 618.998 802.08 623.475 796.557 623.475H735.874C730.351 623.475 725.874 618.998 725.874 613.475V552.258Z" fill="#6366F1" fill-opacity="0.3"/>
<path d="M725.874 542.258H806.557H725.874ZM807.557 613.475C807.557 619.551 802.632 624.475 796.557 624.475H736.874C730.799 624.475 725.874 619.551 725.874 613.475C725.874 618.446 730.351 622.475 735.874 622.475H796.557C801.527 622.475 805.557 618.446 805.557 613.475H807.557ZM725.874 623.475V542.258V623.475ZM796.557 542.258C802.632 542.258 807.557 547.182 807.557 553.258V613.475C807.557 619.551 802.632 624.475 796.557 624.475V622.475C801.527 622.475 805.557 618.446 805.557 613.475V552.258C805.557 546.735 801.527 542.258 796.557 542.258Z" fill="url(#paint0_linear_213_45)" mask="url(#path-29-inside-1_213_45)"/>
</g>
<g filter="url(#filter2_f_213_45)">
<circle cx="950.586" cy="247.434" r="35.7823" fill="#6366F1"/>
</g>
<g filter="url(#filter3_b_213_45)">
<mask id="path-32-inside-2_213_45" fill="white">
<path d="M887.245 228.987C887.245 223.464 891.722 218.987 897.245 218.987H957.927C963.45 218.987 967.927 223.464 967.927 228.987V290.205C967.927 295.727 963.45 300.205 957.927 300.205H897.245C891.722 300.205 887.245 295.727 887.245 290.205V228.987Z"/>
</mask>
<path d="M887.245 228.987C887.245 223.464 891.722 218.987 897.245 218.987H957.927C963.45 218.987 967.927 223.464 967.927 228.987V290.205C967.927 295.727 963.45 300.205 957.927 300.205H897.245C891.722 300.205 887.245 295.727 887.245 290.205V228.987Z" fill="#6366F1" fill-opacity="0.3"/>
<path d="M887.245 228.987C887.245 222.912 892.169 217.987 898.245 217.987H957.927C964.003 217.987 968.927 222.912 968.927 228.987H966.927C966.927 224.016 962.898 219.987 957.927 219.987H897.245C891.722 219.987 887.245 224.016 887.245 228.987ZM967.927 300.205H887.245H967.927ZM887.245 300.205V218.987V300.205ZM957.927 217.987C964.003 217.987 968.927 222.912 968.927 228.987V289.205C968.927 295.28 964.003 300.205 957.927 300.205C962.898 300.205 966.927 295.727 966.927 290.205V228.987C966.927 224.016 962.898 219.987 957.927 219.987V217.987Z" fill="url(#paint1_linear_213_45)" mask="url(#path-32-inside-2_213_45)"/>
</g>
<g filter="url(#filter4_f_213_45)">
<circle cx="1192.64" cy="497.355" r="35.7823" fill="#6366F1"/>
</g>
<g filter="url(#filter5_b_213_45)">
<mask id="path-35-inside-3_213_45" fill="white">
<path d="M1129.3 478.908C1129.3 473.385 1133.78 468.908 1139.3 468.908H1199.98C1205.5 468.908 1209.98 473.385 1209.98 478.908V540.126C1209.98 545.649 1205.5 550.126 1199.98 550.126H1139.3C1133.78 550.126 1129.3 545.649 1129.3 540.126V478.908Z"/>
</mask>
<path d="M1129.3 478.908C1129.3 473.385 1133.78 468.908 1139.3 468.908H1199.98C1205.5 468.908 1209.98 473.385 1209.98 478.908V540.126C1209.98 545.649 1205.5 550.126 1199.98 550.126H1139.3C1133.78 550.126 1129.3 545.649 1129.3 540.126V478.908Z" fill="#6366F1" fill-opacity="0.3"/>
<path d="M1129.3 478.908C1129.3 472.833 1134.22 467.908 1140.3 467.908H1199.98C1206.06 467.908 1210.98 472.833 1210.98 478.908H1208.98C1208.98 473.937 1204.95 469.908 1199.98 469.908H1139.3C1133.78 469.908 1129.3 473.937 1129.3 478.908ZM1209.98 550.126H1129.3H1209.98ZM1129.3 550.126V468.908V550.126ZM1199.98 467.908C1206.06 467.908 1210.98 472.833 1210.98 478.908V539.126C1210.98 545.201 1206.06 550.126 1199.98 550.126C1204.95 550.126 1208.98 545.649 1208.98 540.126V478.908C1208.98 473.937 1204.95 469.908 1199.98 469.908V467.908Z" fill="url(#paint2_linear_213_45)" mask="url(#path-35-inside-3_213_45)"/>
</g>
<g filter="url(#filter6_f_213_45)">
<circle cx="265.109" cy="600.705" r="35.7823" fill="#6366F1"/>
</g>
<g filter="url(#filter7_b_213_45)">
<mask id="path-38-inside-4_213_45" fill="white">
<path d="M241.768 552.258C241.768 546.735 246.245 542.258 251.768 542.258H312.451C317.974 542.258 322.451 546.735 322.451 552.258V613.475C322.451 618.998 317.974 623.475 312.451 623.475H251.768C246.245 623.475 241.768 618.998 241.768 613.475V552.258Z"/>
</mask>
<path d="M241.768 552.258C241.768 546.735 246.245 542.258 251.768 542.258H312.451C317.974 542.258 322.451 546.735 322.451 552.258V613.475C322.451 618.998 317.974 623.475 312.451 623.475H251.768C246.245 623.475 241.768 618.998 241.768 613.475V552.258Z" fill="#6366F1" fill-opacity="0.3"/>
<path d="M241.768 542.258H322.451H241.768ZM322.451 613.475C322.451 619.551 317.526 624.475 311.451 624.475H251.768C245.693 624.475 240.768 619.551 240.768 613.475H242.768C242.768 618.446 246.798 622.475 251.768 622.475H312.451C317.974 622.475 322.451 618.446 322.451 613.475ZM251.768 624.475C245.693 624.475 240.768 619.551 240.768 613.475V553.258C240.768 547.182 245.693 542.258 251.768 542.258C246.798 542.258 242.768 546.735 242.768 552.258V613.475C242.768 618.446 246.798 622.475 251.768 622.475V624.475ZM322.451 542.258V623.475V542.258Z" fill="url(#paint3_linear_213_45)" mask="url(#path-38-inside-4_213_45)"/>
</g>
<g filter="url(#filter8_f_213_45)">
<circle cx="184.427" cy="247.434" r="35.7823" fill="#6366F1"/>
</g>
<g filter="url(#filter9_b_213_45)">
<mask id="path-41-inside-5_213_45" fill="white">
<path d="M161.085 228.987C161.085 223.464 165.563 218.987 171.085 218.987H231.768C237.291 218.987 241.768 223.464 241.768 228.987V290.205C241.768 295.727 237.291 300.205 231.768 300.205H171.085C165.563 300.205 161.085 295.727 161.085 290.205V228.987Z"/>
</mask>
<path d="M161.085 228.987C161.085 223.464 165.563 218.987 171.085 218.987H231.768C237.291 218.987 241.768 223.464 241.768 228.987V290.205C241.768 295.727 237.291 300.205 231.768 300.205H171.085C165.563 300.205 161.085 295.727 161.085 290.205V228.987Z" fill="#6366F1" fill-opacity="0.3"/>
<path d="M160.085 228.987C160.085 222.912 165.01 217.987 171.085 217.987H230.768C236.843 217.987 241.768 222.912 241.768 228.987C241.768 224.016 237.291 219.987 231.768 219.987H171.085C166.115 219.987 162.085 224.016 162.085 228.987H160.085ZM241.768 300.205H161.085H241.768ZM171.085 300.205C165.01 300.205 160.085 295.28 160.085 289.205V228.987C160.085 222.912 165.01 217.987 171.085 217.987V219.987C166.115 219.987 162.085 224.016 162.085 228.987V290.205C162.085 295.727 166.115 300.205 171.085 300.205ZM241.768 218.987V300.205V218.987Z" fill="url(#paint4_linear_213_45)" mask="url(#path-41-inside-5_213_45)"/>
</g>
<g filter="url(#filter10_f_213_45)">
<circle cx="507.167" cy="86.0636" r="35.7823" fill="#6366F1"/>
</g>
<g filter="url(#filter11_b_213_45)">
<mask id="path-44-inside-6_213_45" fill="white">
<path d="M483.826 67.6166C483.826 62.0938 488.303 57.6166 493.826 57.6166H554.509C560.031 57.6166 564.509 62.0938 564.509 67.6166V128.834C564.509 134.357 560.031 138.834 554.509 138.834H493.826C488.303 138.834 483.826 134.357 483.826 128.834V67.6166Z"/>
</mask>
<path d="M483.826 67.6166C483.826 62.0938 488.303 57.6166 493.826 57.6166H554.509C560.031 57.6166 564.509 62.0938 564.509 67.6166V128.834C564.509 134.357 560.031 138.834 554.509 138.834H493.826C488.303 138.834 483.826 134.357 483.826 128.834V67.6166Z" fill="#6366F1" fill-opacity="0.3"/>
<path d="M482.826 67.6166C482.826 61.5415 487.751 56.6166 493.826 56.6166H553.509C559.584 56.6166 564.509 61.5415 564.509 67.6166C564.509 62.6461 560.031 58.6166 554.509 58.6166H493.826C488.855 58.6166 484.826 62.6461 484.826 67.6166H482.826ZM564.509 138.834H483.826H564.509ZM493.826 138.834C487.751 138.834 482.826 133.91 482.826 127.834V67.6166C482.826 61.5415 487.751 56.6166 493.826 56.6166V58.6166C488.855 58.6166 484.826 62.6461 484.826 67.6166V128.834C484.826 134.357 488.855 138.834 493.826 138.834ZM564.509 57.6166V138.834V57.6166Z" fill="url(#paint5_linear_213_45)" mask="url(#path-44-inside-6_213_45)"/>
</g>
<mask id="path-46-inside-7_213_45" fill="white">
<path fill-rule="evenodd" clip-rule="evenodd" d="M677.723 210.246C677.723 203.404 676.15 196.655 673.128 190.535C670.516 185.245 668.983 179.476 668.618 173.573L667.745 159.42L666.871 173.572C666.507 179.476 664.973 185.244 662.361 190.535C659.339 196.655 657.766 203.404 657.766 210.247V411.753C657.766 418.596 659.339 425.345 662.361 431.466C664.973 436.756 666.507 442.525 666.871 448.428L667.745 462.58L668.618 448.427C668.983 442.524 670.516 436.756 673.128 431.465C676.15 425.345 677.723 418.596 677.723 411.753V210.246ZM612.382 210.745C615.405 216.866 616.977 223.615 616.977 230.457V391.543C616.977 398.386 615.405 405.134 612.382 411.255C609.77 416.545 608.237 422.314 607.872 428.217L606.999 442.369L606.125 428.217C605.761 422.314 604.227 416.545 601.615 411.255C598.593 405.134 597.02 398.386 597.02 391.543V230.457C597.02 223.615 598.593 216.866 601.615 210.745C604.227 205.455 605.761 199.686 606.125 193.783L606.999 179.631L607.872 193.783C608.237 199.686 609.77 205.455 612.382 210.745ZM586.604 250.668C586.604 243.825 585.032 237.076 582.009 230.956C579.397 225.666 577.863 219.897 577.499 213.994L576.626 199.841L575.752 213.994C575.388 219.897 573.854 225.666 571.242 230.956C568.22 237.076 566.647 243.825 566.647 250.668V371.332C566.647 378.174 568.22 384.924 571.242 391.044C573.854 396.334 575.388 402.103 575.752 408.006L576.626 422.159L577.499 408.006C577.863 402.103 579.397 396.334 582.009 391.044C585.032 384.924 586.604 378.174 586.604 371.332V250.668ZM551.636 271.377C554.658 277.498 556.231 284.246 556.231 291.089V330.911C556.231 337.753 554.658 344.502 551.636 350.622C549.024 355.913 547.491 361.681 547.126 367.585L546.253 381.737L545.379 367.585C545.015 361.681 543.481 355.913 540.869 350.622C537.847 344.502 536.274 337.753 536.274 330.911V291.089C536.274 284.246 537.847 277.498 540.869 271.377C543.481 266.087 545.015 260.318 545.379 254.415L546.253 240.263L547.126 254.415C547.491 260.318 549.024 266.087 551.636 271.377ZM642.755 190.535C645.777 196.655 647.35 203.404 647.35 210.247V411.753C647.35 418.596 645.777 425.345 642.755 431.465C640.143 436.756 638.61 442.524 638.245 448.427L637.372 462.58L636.498 448.427C636.134 442.524 634.6 436.756 631.988 431.465C628.966 425.345 627.393 418.596 627.393 411.753V210.247C627.393 203.404 628.966 196.655 631.988 190.535C634.6 185.244 636.134 179.476 636.498 173.572L637.372 159.42L638.245 173.572C638.61 179.476 640.143 185.244 642.755 190.535ZM703.501 190.535C706.523 196.655 708.096 203.404 708.096 210.247V411.753C708.096 418.596 706.523 425.345 703.501 431.465C700.889 436.756 699.356 442.524 698.991 448.427L698.118 462.58L697.244 448.427C696.88 442.524 695.346 436.756 692.734 431.465C689.712 425.345 688.139 418.596 688.139 411.753V210.247C688.139 203.404 689.712 196.655 692.734 190.535C695.346 185.244 696.88 179.476 697.244 173.572L698.118 159.42L698.991 173.572C699.356 179.476 700.889 185.244 703.501 190.535ZM738.469 230.457C738.469 223.615 736.896 216.866 733.874 210.745C731.262 205.455 729.728 199.686 729.364 193.783L728.491 179.631L727.617 193.783C727.253 199.686 725.719 205.455 723.107 210.745C720.085 216.866 718.512 223.615 718.512 230.457V391.543C718.512 398.386 720.085 405.134 723.107 411.255C725.719 416.545 727.253 422.314 727.617 428.217L728.491 442.369L729.364 428.217C729.728 422.314 731.262 416.545 733.874 411.255C736.896 405.134 738.469 398.386 738.469 391.543V230.457ZM764.247 230.956C767.269 237.076 768.842 243.825 768.842 250.668V371.332C768.842 378.174 767.269 384.924 764.247 391.044C761.635 396.334 760.101 402.103 759.737 408.006L758.863 422.159L757.99 408.006C757.625 402.103 756.092 396.334 753.48 391.044C750.458 384.924 748.885 378.174 748.885 371.332V250.668C748.885 243.825 750.458 237.076 753.48 230.956C756.092 225.666 757.625 219.897 757.99 213.994L758.863 199.841L759.737 213.994C760.101 219.897 761.635 225.666 764.247 230.956ZM799.215 291.089C799.215 284.246 797.642 277.498 794.62 271.377C792.008 266.087 790.474 260.318 790.11 254.415L789.236 240.263L788.363 254.415C787.998 260.318 786.465 266.087 783.853 271.377C780.831 277.498 779.258 284.246 779.258 291.089V330.911C779.258 337.753 780.831 344.502 783.853 350.622C786.465 355.913 787.998 361.681 788.363 367.585L789.236 381.737L790.11 367.585C790.474 361.681 792.008 355.913 794.62 350.622C797.642 344.502 799.215 337.753 799.215 330.911V291.089Z"/>
</mask>
<path fill-rule="evenodd" clip-rule="evenodd" d="M677.723 210.246C677.723 203.404 676.15 196.655 673.128 190.535C670.516 185.245 668.983 179.476 668.618 173.573L667.745 159.42L666.871 173.572C666.507 179.476 664.973 185.244 662.361 190.535C659.339 196.655 657.766 203.404 657.766 210.247V411.753C657.766 418.596 659.339 425.345 662.361 431.466C664.973 436.756 666.507 442.525 666.871 448.428L667.745 462.58L668.618 448.427C668.983 442.524 670.516 436.756 673.128 431.465C676.15 425.345 677.723 418.596 677.723 411.753V210.246ZM612.382 210.745C615.405 216.866 616.977 223.615 616.977 230.457V391.543C616.977 398.386 615.405 405.134 612.382 411.255C609.77 416.545 608.237 422.314 607.872 428.217L606.999 442.369L606.125 428.217C605.761 422.314 604.227 416.545 601.615 411.255C598.593 405.134 597.02 398.386 597.02 391.543V230.457C597.02 223.615 598.593 216.866 601.615 210.745C604.227 205.455 605.761 199.686 606.125 193.783L606.999 179.631L607.872 193.783C608.237 199.686 609.77 205.455 612.382 210.745ZM586.604 250.668C586.604 243.825 585.032 237.076 582.009 230.956C579.397 225.666 577.863 219.897 577.499 213.994L576.626 199.841L575.752 213.994C575.388 219.897 573.854 225.666 571.242 230.956C568.22 237.076 566.647 243.825 566.647 250.668V371.332C566.647 378.174 568.22 384.924 571.242 391.044C573.854 396.334 575.388 402.103 575.752 408.006L576.626 422.159L577.499 408.006C577.863 402.103 579.397 396.334 582.009 391.044C585.032 384.924 586.604 378.174 586.604 371.332V250.668ZM551.636 271.377C554.658 277.498 556.231 284.246 556.231 291.089V330.911C556.231 337.753 554.658 344.502 551.636 350.622C549.024 355.913 547.491 361.681 547.126 367.585L546.253 381.737L545.379 367.585C545.015 361.681 543.481 355.913 540.869 350.622C537.847 344.502 536.274 337.753 536.274 330.911V291.089C536.274 284.246 537.847 277.498 540.869 271.377C543.481 266.087 545.015 260.318 545.379 254.415L546.253 240.263L547.126 254.415C547.491 260.318 549.024 266.087 551.636 271.377ZM642.755 190.535C645.777 196.655 647.35 203.404 647.35 210.247V411.753C647.35 418.596 645.777 425.345 642.755 431.465C640.143 436.756 638.61 442.524 638.245 448.427L637.372 462.58L636.498 448.427C636.134 442.524 634.6 436.756 631.988 431.465C628.966 425.345 627.393 418.596 627.393 411.753V210.247C627.393 203.404 628.966 196.655 631.988 190.535C634.6 185.244 636.134 179.476 636.498 173.572L637.372 159.42L638.245 173.572C638.61 179.476 640.143 185.244 642.755 190.535ZM703.501 190.535C706.523 196.655 708.096 203.404 708.096 210.247V411.753C708.096 418.596 706.523 425.345 703.501 431.465C700.889 436.756 699.356 442.524 698.991 448.427L698.118 462.58L697.244 448.427C696.88 442.524 695.346 436.756 692.734 431.465C689.712 425.345 688.139 418.596 688.139 411.753V210.247C688.139 203.404 689.712 196.655 692.734 190.535C695.346 185.244 696.88 179.476 697.244 173.572L698.118 159.42L698.991 173.572C699.356 179.476 700.889 185.244 703.501 190.535ZM738.469 230.457C738.469 223.615 736.896 216.866 733.874 210.745C731.262 205.455 729.728 199.686 729.364 193.783L728.491 179.631L727.617 193.783C727.253 199.686 725.719 205.455 723.107 210.745C720.085 216.866 718.512 223.615 718.512 230.457V391.543C718.512 398.386 720.085 405.134 723.107 411.255C725.719 416.545 727.253 422.314 727.617 428.217L728.491 442.369L729.364 428.217C729.728 422.314 731.262 416.545 733.874 411.255C736.896 405.134 738.469 398.386 738.469 391.543V230.457ZM764.247 230.956C767.269 237.076 768.842 243.825 768.842 250.668V371.332C768.842 378.174 767.269 384.924 764.247 391.044C761.635 396.334 760.101 402.103 759.737 408.006L758.863 422.159L757.99 408.006C757.625 402.103 756.092 396.334 753.48 391.044C750.458 384.924 748.885 378.174 748.885 371.332V250.668C748.885 243.825 750.458 237.076 753.48 230.956C756.092 225.666 757.625 219.897 757.99 213.994L758.863 199.841L759.737 213.994C760.101 219.897 761.635 225.666 764.247 230.956ZM799.215 291.089C799.215 284.246 797.642 277.498 794.62 271.377C792.008 266.087 790.474 260.318 790.11 254.415L789.236 240.263L788.363 254.415C787.998 260.318 786.465 266.087 783.853 271.377C780.831 277.498 779.258 284.246 779.258 291.089V330.911C779.258 337.753 780.831 344.502 783.853 350.622C786.465 355.913 787.998 361.681 788.363 367.585L789.236 381.737L790.11 367.585C790.474 361.681 792.008 355.913 794.62 350.622C797.642 344.502 799.215 337.753 799.215 330.911V291.089Z" stroke="#A6B4FC" stroke-width="8" mask="url(#path-46-inside-7_213_45)"/>
<defs>
<filter id="filter0_f_213_45" x="703.433" y="514.922" width="171.564" height="171.565" filterUnits="userSpaceOnUse" color-interpolation-filters="sRGB">
<feFlood flood-opacity="0" result="BackgroundImageFix"/>
<feBlend mode="normal" in="SourceGraphic" in2="BackgroundImageFix" result="shape"/>
<feGaussianBlur stdDeviation="25" result="effect1_foregroundBlur_213_45"/>
</filter>
<filter id="filter1_b_213_45" x="705.874" y="522.258" width="120.683" height="121.218" filterUnits="userSpaceOnUse" color-interpolation-filters="sRGB">
<feFlood flood-opacity="0" result="BackgroundImageFix"/>
<feGaussianBlur in="BackgroundImageFix" stdDeviation="10"/>
<feComposite in2="SourceAlpha" operator="in" result="effect1_backgroundBlur_213_45"/>
<feBlend mode="normal" in="SourceGraphic" in2="effect1_backgroundBlur_213_45" result="shape"/>
</filter>
<filter id="filter2_f_213_45" x="864.804" y="161.651" width="171.564" height="171.565" filterUnits="userSpaceOnUse" color-interpolation-filters="sRGB">
<feFlood flood-opacity="0" result="BackgroundImageFix"/>
<feBlend mode="normal" in="SourceGraphic" in2="BackgroundImageFix" result="shape"/>
<feGaussianBlur stdDeviation="25" result="effect1_foregroundBlur_213_45"/>
</filter>
<filter id="filter3_b_213_45" x="867.245" y="198.987" width="120.683" height="121.218" filterUnits="userSpaceOnUse" color-interpolation-filters="sRGB">
<feFlood flood-opacity="0" result="BackgroundImageFix"/>
<feGaussianBlur in="BackgroundImageFix" stdDeviation="10"/>
<feComposite in2="SourceAlpha" operator="in" result="effect1_backgroundBlur_213_45"/>
<feBlend mode="normal" in="SourceGraphic" in2="effect1_backgroundBlur_213_45" result="shape"/>
</filter>
<filter id="filter4_f_213_45" x="1106.86" y="411.573" width="171.564" height="171.565" filterUnits="userSpaceOnUse" color-interpolation-filters="sRGB">
<feFlood flood-opacity="0" result="BackgroundImageFix"/>
<feBlend mode="normal" in="SourceGraphic" in2="BackgroundImageFix" result="shape"/>
<feGaussianBlur stdDeviation="25" result="effect1_foregroundBlur_213_45"/>
</filter>
<filter id="filter5_b_213_45" x="1109.3" y="448.908" width="120.683" height="121.218" filterUnits="userSpaceOnUse" color-interpolation-filters="sRGB">
<feFlood flood-opacity="0" result="BackgroundImageFix"/>
<feGaussianBlur in="BackgroundImageFix" stdDeviation="10"/>
<feComposite in2="SourceAlpha" operator="in" result="effect1_backgroundBlur_213_45"/>
<feBlend mode="normal" in="SourceGraphic" in2="effect1_backgroundBlur_213_45" result="shape"/>
</filter>
<filter id="filter6_f_213_45" x="179.327" y="514.922" width="171.564" height="171.565" filterUnits="userSpaceOnUse" color-interpolation-filters="sRGB">
<feFlood flood-opacity="0" result="BackgroundImageFix"/>
<feBlend mode="normal" in="SourceGraphic" in2="BackgroundImageFix" result="shape"/>
<feGaussianBlur stdDeviation="25" result="effect1_foregroundBlur_213_45"/>
</filter>
<filter id="filter7_b_213_45" x="221.768" y="522.258" width="120.683" height="121.218" filterUnits="userSpaceOnUse" color-interpolation-filters="sRGB">
<feFlood flood-opacity="0" result="BackgroundImageFix"/>
<feGaussianBlur in="BackgroundImageFix" stdDeviation="10"/>
<feComposite in2="SourceAlpha" operator="in" result="effect1_backgroundBlur_213_45"/>
<feBlend mode="normal" in="SourceGraphic" in2="effect1_backgroundBlur_213_45" result="shape"/>
</filter>
<filter id="filter8_f_213_45" x="98.6445" y="161.651" width="171.564" height="171.565" filterUnits="userSpaceOnUse" color-interpolation-filters="sRGB">
<feFlood flood-opacity="0" result="BackgroundImageFix"/>
<feBlend mode="normal" in="SourceGraphic" in2="BackgroundImageFix" result="shape"/>
<feGaussianBlur stdDeviation="25" result="effect1_foregroundBlur_213_45"/>
</filter>
<filter id="filter9_b_213_45" x="141.085" y="198.987" width="120.683" height="121.218" filterUnits="userSpaceOnUse" color-interpolation-filters="sRGB">
<feFlood flood-opacity="0" result="BackgroundImageFix"/>
<feGaussianBlur in="BackgroundImageFix" stdDeviation="10"/>
<feComposite in2="SourceAlpha" operator="in" result="effect1_backgroundBlur_213_45"/>
<feBlend mode="normal" in="SourceGraphic" in2="effect1_backgroundBlur_213_45" result="shape"/>
</filter>
<filter id="filter10_f_213_45" x="421.385" y="0.281311" width="171.564" height="171.565" filterUnits="userSpaceOnUse" color-interpolation-filters="sRGB">
<feFlood flood-opacity="0" result="BackgroundImageFix"/>
<feBlend mode="normal" in="SourceGraphic" in2="BackgroundImageFix" result="shape"/>
<feGaussianBlur stdDeviation="25" result="effect1_foregroundBlur_213_45"/>
</filter>
<filter id="filter11_b_213_45" x="463.826" y="37.6166" width="120.683" height="121.218" filterUnits="userSpaceOnUse" color-interpolation-filters="sRGB">
<feFlood flood-opacity="0" result="BackgroundImageFix"/>
<feGaussianBlur in="BackgroundImageFix" stdDeviation="10"/>
<feComposite in2="SourceAlpha" operator="in" result="effect1_backgroundBlur_213_45"/>
<feBlend mode="normal" in="SourceGraphic" in2="effect1_backgroundBlur_213_45" result="shape"/>
</filter>
<linearGradient id="paint0_linear_213_45" x1="806.557" y1="622.94" x2="766.215" y2="582.599" gradientUnits="userSpaceOnUse">
<stop stop-color="#E0E7FF"/>
<stop offset="1" stop-color="#E0E7FF" stop-opacity="0"/>
</linearGradient>
<linearGradient id="paint1_linear_213_45" x1="967.927" y1="218.987" x2="927.586" y2="259.328" gradientUnits="userSpaceOnUse">
<stop stop-color="#E0E7FF"/>
<stop offset="1" stop-color="#E0E7FF" stop-opacity="0"/>
</linearGradient>
<linearGradient id="paint2_linear_213_45" x1="1209.98" y1="468.908" x2="1169.64" y2="509.249" gradientUnits="userSpaceOnUse">
<stop stop-color="#E0E7FF"/>
<stop offset="1" stop-color="#E0E7FF" stop-opacity="0"/>
</linearGradient>
<linearGradient id="paint3_linear_213_45" x1="234.67" y1="630.038" x2="282.109" y2="582.599" gradientUnits="userSpaceOnUse">
<stop stop-color="#E0E7FF"/>
<stop offset="1" stop-color="#E0E7FF" stop-opacity="0"/>
</linearGradient>
<linearGradient id="paint4_linear_213_45" x1="161.085" y1="218.987" x2="201.427" y2="259.328" gradientUnits="userSpaceOnUse">
<stop stop-color="#E0E7FF"/>
<stop offset="1" stop-color="#E0E7FF" stop-opacity="0"/>
</linearGradient>
<linearGradient id="paint5_linear_213_45" x1="483.826" y1="57.6166" x2="524.167" y2="97.9581" gradientUnits="userSpaceOnUse">
<stop stop-color="#E0E7FF"/>
<stop offset="1" stop-color="#E0E7FF" stop-opacity="0"/>
</linearGradient>
<clipPath id="clip0_213_45">
<rect width="1291" height="647" fill="white" transform="translate(0 57)"/>
</clipPath>
</defs>
</svg>
