<svg width="74" height="36" viewBox="0 0 74 36" fill="none" xmlns="http://www.w3.org/2000/svg">
<path fill-rule="evenodd" clip-rule="evenodd" d="M17.1821 6.03559C17.1821 5.22303 16.9953 4.42163 16.6364 3.69485C16.3263 3.06663 16.1441 2.38162 16.1009 1.68061L15.9971 0L15.8935 1.68055C15.8501 2.38156 15.668 3.0666 15.3578 3.69483C14.999 4.42162 14.8122 5.22304 14.8122 6.03562V29.9644C14.8122 30.7769 14.999 31.5784 15.3578 32.3052C15.668 32.9334 15.8501 33.6184 15.8935 34.3195L15.9971 36L16.1009 34.3194C16.1441 33.6184 16.3263 32.9334 16.6364 32.3051C16.9953 31.5784 17.1821 30.777 17.1821 29.9644V6.03559ZM10.7116 6.09485C11.0705 6.82163 11.2572 7.62308 11.2572 8.43562V27.5644C11.2572 28.377 11.0705 29.1784 10.7116 29.9052C10.4014 30.5334 10.2193 31.2184 10.176 31.9194L10.0723 33.6L9.96859 31.9194C9.92526 31.2184 9.74315 30.5334 9.43298 29.9052C9.07408 29.1784 8.8873 28.377 8.8873 27.5644V8.43562C8.8873 7.62308 9.07408 6.82163 9.43298 6.09485C9.74315 5.46662 9.92526 4.7816 9.96859 4.08058L10.0723 2.40001L10.176 4.08058C10.2193 4.7816 10.4014 5.46662 10.7116 6.09485ZM8.29481 10.8356C8.29481 10.023 8.10803 9.22162 7.74913 8.49487C7.43897 7.8666 7.25683 7.18159 7.21356 6.48057L7.10984 4.79999L7.00612 6.48057C6.96285 7.18159 6.78071 7.8666 6.47052 8.49487C6.11168 9.22162 5.92487 10.023 5.92487 10.8356V25.1644C5.92487 25.9769 6.11168 26.7784 6.47052 27.5051C6.78071 28.1334 6.96285 28.8184 7.00612 29.5194L7.10984 31.2L7.21356 29.5194C7.25683 28.8184 7.43897 28.1334 7.74913 27.5051C8.10803 26.7784 8.29481 25.9769 8.29481 25.1644V10.8356ZM4.78672 13.2948C5.14556 14.0216 5.33238 14.823 5.33238 15.6356V20.3644C5.33238 21.1769 5.14556 21.9784 4.78672 22.7051C4.47654 23.3334 4.29439 24.0184 4.25113 24.7194L4.14741 26.4L4.04368 24.7194C4.00042 24.0184 3.81827 23.3334 3.50809 22.7051C3.14925 21.9784 2.96243 21.1769 2.96243 20.3644V15.6356C2.96243 14.823 3.14925 14.0216 3.50809 13.2948C3.81827 12.6666 4.00042 11.9815 4.04368 11.2806L4.14741 9.6L4.25113 11.2806C4.29439 11.9815 4.47654 12.6666 4.78672 13.2948ZM2.36983 18L2.36995 18.0356V17.9644L2.36983 18ZM0 18.0356L0.00011955 18C0.00549476 18.8004 0.19206 19.589 0.545659 20.3051C0.855839 20.9334 1.03798 21.6184 1.08125 22.3194L1.18497 24L1.2887 22.3194C1.33196 21.6184 1.51411 20.9334 1.82429 20.3051C2.17788 19.589 2.36445 18.8004 2.36983 18C2.36445 17.1996 2.17788 16.411 1.82429 15.6949C1.51411 15.0666 1.33196 14.3816 1.2887 13.6806L1.18497 12L1.08125 13.6806C1.03798 14.3816 0.855839 15.0666 0.545659 15.6949C0.19206 16.411 0.00549477 17.1996 0.00011955 18L0 17.9644V18.0356ZM13.674 3.69484C14.0329 4.42162 14.2197 5.22304 14.2197 6.0356V29.9644C14.2197 30.777 14.0329 31.5784 13.674 32.3051C13.3638 32.9334 13.1817 33.6184 13.1384 34.3194L13.0347 36L12.931 34.3194C12.8877 33.6184 12.7056 32.9334 12.3954 32.3051C12.0365 31.5784 11.8497 30.777 11.8497 29.9644V6.0356C11.8497 5.22304 12.0365 4.42162 12.3954 3.69484C12.7056 3.06661 12.8877 2.38159 12.931 1.68058L13.0347 0L13.1384 1.68058C13.1817 2.38159 13.3638 3.06661 13.674 3.69484ZM19.5989 3.69484C19.9578 4.42162 20.1445 5.22304 20.1445 6.0356V29.9644C20.1445 30.777 19.9578 31.5784 19.5989 32.3051C19.2887 32.9334 19.1066 33.6184 19.0633 34.3194L18.9596 36L18.8559 34.3194C18.8126 33.6184 18.6304 32.9334 18.3203 32.3051C17.9614 31.5784 17.7746 30.777 17.7746 29.9644V6.0356C17.7746 5.22304 17.9614 4.42162 18.3203 3.69484C18.6304 3.06661 18.8126 2.38159 18.8559 1.68058L18.9596 0L19.0633 1.68058C19.1066 2.38159 19.2887 3.06661 19.5989 3.69484ZM23.107 8.43562C23.107 7.62308 22.9202 6.82163 22.5613 6.09485C22.2511 5.46662 22.069 4.7816 22.0257 4.08058L21.922 2.40001L21.8183 4.08058C21.775 4.7816 21.5929 5.46662 21.2827 6.09485C20.9238 6.82163 20.737 7.62308 20.737 8.43562V27.5644C20.737 28.377 20.9238 29.1784 21.2827 29.9052C21.5929 30.5334 21.775 31.2184 21.8183 31.9194L21.922 33.6L22.0257 31.9194C22.069 31.2184 22.2511 30.5334 22.5613 29.9052C22.9202 29.1784 23.107 28.377 23.107 27.5644V8.43562ZM25.5237 8.49487C25.8826 9.22162 26.0694 10.023 26.0694 10.8356V25.1644C26.0694 25.9769 25.8826 26.7784 25.5237 27.5051C25.2136 28.1334 25.0314 28.8184 24.9881 29.5194L24.8844 31.2L24.7808 29.5194C24.7374 28.8184 24.5553 28.1334 24.2451 27.5051C23.8863 26.7784 23.6995 25.9769 23.6995 25.1644V10.8356C23.6995 10.023 23.8863 9.22162 24.2451 8.49487C24.5553 7.8666 24.7374 7.18159 24.7808 6.48057L24.8844 4.79999L24.9881 6.48057C25.0314 7.18159 25.2136 7.8666 25.5237 8.49487ZM29.0318 15.6356C29.0318 14.823 28.8451 14.0216 28.4862 13.2948C28.176 12.6666 27.9939 11.9815 27.9506 11.2806L27.8469 9.6L27.7432 11.2806C27.6999 11.9815 27.5177 12.6666 27.2076 13.2948C26.8488 14.0216 26.6619 14.823 26.6619 15.6356V20.3644C26.6619 21.1769 26.8488 21.9784 27.2076 22.7051C27.5177 23.3334 27.6999 24.0184 27.7432 24.7194L27.8469 26.4L27.9506 24.7194C27.9939 24.0184 28.176 23.3334 28.4862 22.7051C28.8451 21.9784 29.0318 21.1769 29.0318 20.3644V15.6356ZM31.9941 18C31.9942 18.0118 31.9943 18.0237 31.9943 18.0356V17.9644C31.9943 17.9763 31.9942 17.9881 31.9941 18ZM29.6245 18C29.6298 18.8004 29.8164 19.589 30.17 20.3051C30.4802 20.9334 30.6623 21.6184 30.7056 22.3194L30.8093 24L30.913 22.3194C30.9563 21.6184 31.1384 20.9334 31.4486 20.3051C31.8022 19.589 31.9888 18.8004 31.9941 18C31.9888 17.1996 31.8022 16.411 31.4486 15.6949C31.1384 15.0666 30.9563 14.3816 30.913 13.6806L30.8093 12L30.7056 13.6806C30.6623 14.3816 30.4802 15.0666 30.17 15.6949C29.8164 16.411 29.6298 17.1996 29.6245 18ZM29.6245 18C29.6244 17.9881 29.6243 17.9763 29.6243 17.9644V18.0356C29.6243 18.0237 29.6244 18.0118 29.6245 18Z" fill="#6366F1"/>
<path d="M48.0143 14.14L45.8543 14.82C45.7143 13.94 44.9743 12.64 43.0743 12.64C41.6343 12.64 40.6343 13.6 40.6343 14.68C40.6343 15.58 41.1943 16.26 42.2943 16.5L44.3343 16.92C46.8343 17.42 48.1743 19 48.1743 21C48.1743 23.2 46.3943 25.3 43.1543 25.3C39.5543 25.3 37.8943 22.98 37.6743 20.94L39.9143 20.3C40.0543 21.78 41.1143 23.14 43.1543 23.14C44.8543 23.14 45.7343 22.28 45.7343 21.18C45.7343 20.26 45.0543 19.52 43.8343 19.26L41.8343 18.84C39.6743 18.4 38.2343 16.98 38.2343 14.86C38.2343 12.48 40.4143 10.52 43.0543 10.52C46.3943 10.52 47.6943 12.56 48.0143 14.14ZM53.9702 17.1C52.5502 17.1 51.2902 18.16 51.2902 20.12C51.2902 22.08 52.5502 23.18 54.0102 23.18C55.5302 23.18 56.2302 22.12 56.4502 21.38L58.4902 22.12C58.0302 23.64 56.5702 25.3 54.0102 25.3C51.1502 25.3 48.9702 23.08 48.9702 20.12C48.9702 17.12 51.1502 14.96 53.9502 14.96C56.5702 14.96 58.0102 16.6 58.4102 18.16L56.3302 18.92C56.1102 18.06 55.4502 17.1 53.9702 17.1ZM62.2505 25H59.9505V15.26H62.2505V25ZM59.5905 11.84C59.5905 11 60.2705 10.32 61.0905 10.32C61.9305 10.32 62.6105 11 62.6105 11.84C62.6105 12.68 61.9305 13.34 61.0905 13.34C60.2705 13.34 59.5905 12.68 59.5905 11.84ZM64.0435 22.36C64.0435 20.62 65.3235 19.66 66.9835 19.42L69.4835 19.04C70.0435 18.96 70.2035 18.68 70.2035 18.34C70.2035 17.52 69.6435 16.86 68.3635 16.86C67.1435 16.86 66.4635 17.64 66.3635 18.62L64.2435 18.14C64.4235 16.46 65.9435 14.96 68.3435 14.96C71.3435 14.96 72.4835 16.66 72.4835 18.6V23.44C72.4835 24.32 72.5835 24.9 72.6035 25H70.4435C70.4235 24.94 70.3435 24.54 70.3435 23.76C69.8835 24.5 68.9235 25.3 67.3435 25.3C65.3035 25.3 64.0435 23.9 64.0435 22.36ZM67.7835 23.48C69.0835 23.48 70.2035 22.86 70.2035 20.96V20.52L67.6635 20.9C66.9435 21.02 66.3635 21.42 66.3635 22.22C66.3635 22.88 66.8635 23.48 67.7835 23.48Z" fill="#E0E7FF"/>
</svg>
