<svg width="270" height="116" viewBox="0 0 270 116" fill="none" xmlns="http://www.w3.org/2000/svg">
<path fill-rule="evenodd" clip-rule="evenodd" d="M53.7951 19.6821C53.7951 17.0798 53.1969 14.5132 52.0474 12.1855C51.0541 10.1736 50.4708 7.9797 50.3323 5.73461L50 0.352203L49.6679 5.73442C49.5292 7.97953 48.9459 10.1735 47.9526 12.1855C46.8034 14.5131 46.2049 17.0798 46.2049 19.6822V96.3178C46.2049 98.9201 46.8034 101.487 47.9526 103.815C48.9459 105.827 49.5292 108.021 49.6679 110.266L50 115.648L50.3323 110.265C50.4708 108.02 51.0541 105.827 52.0474 103.814C53.1969 101.487 53.7951 98.9203 53.7951 96.3178V19.6821ZM28.945 19.8719C30.0944 22.1995 30.6926 24.7663 30.6926 27.3686V88.6314C30.6926 91.2339 30.0944 93.8005 28.945 96.1282C27.9516 98.1401 27.3684 100.334 27.2296 102.579L26.8975 107.961L26.5655 102.579C26.4267 100.334 25.8435 98.1401 24.8501 96.1282C23.7007 93.8005 23.1025 91.2339 23.1025 88.6314V27.3686C23.1025 24.7663 23.7007 22.1995 24.8501 19.8719C25.8435 17.8599 26.4267 15.666 26.5655 13.4209L26.8975 8.0386L27.2296 13.4209C27.3684 15.666 27.9516 17.8599 28.945 19.8719ZM19.1414 35.055C19.1414 32.4524 18.5432 29.8859 17.3937 27.5584C16.4004 25.5462 15.8171 23.3524 15.6785 21.1072L15.3463 15.7249L15.0141 21.1072C14.8755 23.3524 14.2922 25.5462 13.2988 27.5584C12.1496 29.8859 11.5512 32.4524 11.5512 35.055V80.945C11.5512 83.5473 12.1496 86.1141 13.2988 88.4416C14.2922 90.4538 14.8755 92.6475 15.0141 94.8927L15.3463 100.275L15.6785 94.8927C15.8171 92.6475 16.4004 90.4538 17.3937 88.4416C18.5432 86.1141 19.1414 83.5473 19.1414 80.945V35.055ZM5.84257 42.9309C6.9918 45.2586 7.59012 47.8252 7.59012 50.4277V65.5723C7.59012 68.1746 6.9918 70.7414 5.84257 73.0689C4.84916 75.081 4.26581 77.2748 4.12725 79.5199L3.79506 84.9023L3.46287 79.5199C3.32431 77.2748 2.74096 75.081 1.74755 73.0689C0.598316 70.7414 0 68.1746 0 65.5723V50.4277C0 47.8252 0.598316 45.2586 1.74755 42.9309C2.74096 40.919 3.32431 38.725 3.46287 36.4801L3.79506 31.0977L4.12725 36.4801C4.26581 38.725 4.84916 40.919 5.84257 42.9309ZM40.4962 12.1855C41.6456 14.5131 42.2438 17.0798 42.2438 19.6822V96.3178C42.2438 98.9203 41.6456 101.487 40.4962 103.814C39.5028 105.827 38.9196 108.02 38.7808 110.265L38.4488 115.648L38.1167 110.265C37.9779 108.02 37.3947 105.827 36.4013 103.814C35.2519 101.487 34.6537 98.9203 34.6537 96.3178V19.6822C34.6537 17.0798 35.2519 14.5131 36.4013 12.1855C37.3947 10.1735 37.9779 7.97961 38.1167 5.73451L38.4488 0.352203L38.7808 5.73451C38.9196 7.97961 39.5028 10.1735 40.4962 12.1855ZM63.5987 12.1855C64.7481 14.5131 65.3463 17.0798 65.3463 19.6822V96.3178C65.3463 98.9203 64.7481 101.487 63.5987 103.814C62.6053 105.827 62.0221 108.02 61.8833 110.265L61.5512 115.648L61.2192 110.265C61.0804 108.02 60.4972 105.827 59.5038 103.814C58.3544 101.487 57.7562 98.9203 57.7562 96.3178V19.6822C57.7562 17.0798 58.3544 14.5131 59.5038 12.1855C60.4972 10.1735 61.0804 7.97961 61.2192 5.73451L61.5512 0.352203L61.8833 5.73451C62.0221 7.97961 62.6053 10.1735 63.5987 12.1855ZM76.8975 27.3686C76.8975 24.7663 76.2993 22.1995 75.1499 19.8719C74.1565 17.8599 73.5733 15.666 73.4345 13.4209L73.1025 8.0386L72.7704 13.4209C72.6316 15.666 72.0484 17.8599 71.055 19.8719C69.9056 22.1995 69.3074 24.7663 69.3074 27.3686V88.6314C69.3074 91.2339 69.9056 93.8005 71.055 96.1282C72.0484 98.1401 72.6316 100.334 72.7704 102.579L73.1025 107.961L73.4345 102.579C73.5733 100.334 74.1565 98.1401 75.1499 96.1282C76.2993 93.8005 76.8975 91.2339 76.8975 88.6314V27.3686ZM86.7011 27.5584C87.8506 29.8859 88.4488 32.4524 88.4488 35.055V80.945C88.4488 83.5473 87.8506 86.1141 86.7011 88.4416C85.7078 90.4538 85.1245 92.6475 84.9858 94.8927L84.6537 100.275L84.3216 94.8927C84.1829 92.6475 83.5996 90.4538 82.6063 88.4416C81.4571 86.1141 80.8586 83.5473 80.8586 80.945V35.055C80.8586 32.4524 81.4571 29.8859 82.6063 27.5584C83.5996 25.5462 84.1829 23.3524 84.3216 21.1072L84.6537 15.7249L84.9858 21.1072C85.1245 23.3524 85.7078 25.5462 86.7011 27.5584ZM100 50.4277C100 47.8252 99.4018 45.2586 98.2524 42.9309C97.259 40.919 96.6758 38.725 96.537 36.4801L96.2049 31.0977L95.8729 36.4801C95.7341 38.725 95.1509 40.919 94.1575 42.9309C93.0083 45.2586 92.4099 47.8252 92.4099 50.4277V65.5723C92.4099 68.1746 93.0083 70.7414 94.1575 73.0689C95.1509 75.081 95.7341 77.2748 95.8729 79.5199L96.2049 84.9023L96.537 79.5199C96.6758 77.2748 97.259 75.081 98.2524 73.0689C99.4018 70.7414 100 68.1746 100 65.5723V50.4277Z" fill="#E0E7FF"/>
<path d="M158.78 40.68L150.86 43.47C150.14 38.88 146.27 32.58 137.36 32.58C130.16 32.58 125.03 37.26 125.03 43.2C125.03 47.79 127.82 51.3 133.22 52.47L142.76 54.54C153.38 56.88 159.32 63.54 159.32 72.45C159.32 82.35 150.86 91.35 137.27 91.35C121.88 91.35 114.59 81.45 113.42 72.36L121.88 69.66C122.51 76.77 127.55 83.34 137.18 83.34C146 83.34 150.32 78.75 150.32 73.17C150.32 68.58 147.17 64.62 140.78 63.27L131.69 61.29C122.6 59.31 116.12 53.37 116.12 43.83C116.12 33.84 125.39 24.84 137.18 24.84C151.58 24.84 157.34 33.75 158.78 40.68ZM184.251 53.19C177.411 53.19 171.111 58.23 171.111 68.31C171.111 78.21 177.321 83.52 184.341 83.52C192.441 83.52 195.411 78.03 196.401 74.61L203.871 77.85C201.801 84.06 195.591 91.35 184.341 91.35C171.741 91.35 162.471 81.45 162.471 68.31C162.471 54.81 171.921 45.36 184.251 45.36C195.771 45.36 201.711 52.56 203.511 59.13L195.861 62.37C194.781 58.14 191.631 53.19 184.251 53.19ZM218.565 90H210.195V46.71H218.565V90ZM208.305 30.33C208.305 26.91 211.005 24.21 214.335 24.21C217.755 24.21 220.455 26.91 220.455 30.33C220.455 33.66 217.755 36.36 214.335 36.36C211.005 36.36 208.305 33.66 208.305 30.33ZM226.659 78.39C226.659 70.65 232.329 66.33 239.799 65.25L251.499 63.54C254.109 63.18 254.829 61.83 254.829 60.3C254.829 56.07 252.039 52.56 245.469 52.56C239.529 52.56 236.199 56.25 235.659 61.29L227.559 59.4C228.459 51.12 235.929 45.36 245.289 45.36C258.249 45.36 263.289 52.74 263.289 61.2V82.89C263.289 86.67 263.649 88.92 263.829 90H255.549C255.369 88.92 255.099 87.3 255.099 84.15C253.209 87.21 248.889 91.35 241.149 91.35C232.329 91.35 226.659 85.23 226.659 78.39ZM242.319 84.24C249.249 84.24 254.829 80.91 254.829 71.46V69.48L241.599 71.46C237.999 72 235.299 74.07 235.299 77.94C235.299 81.18 237.999 84.24 242.319 84.24Z" fill="#E0E7FF"/>
</svg>
