<svg width="886" height="393" viewBox="0 0 886 393" fill="none" xmlns="http://www.w3.org/2000/svg">
<path fill-rule="evenodd" clip-rule="evenodd" d="M183.441 66.3811C183.441 57.5341 181.407 48.8087 177.499 40.8956C174.122 34.0556 172.139 26.5973 171.669 18.9648L170.539 0.666626L169.41 18.9642C168.938 26.5967 166.955 34.0553 163.578 40.8953C159.672 48.8086 157.637 57.5343 157.637 66.3815V326.914C157.637 335.761 159.672 344.487 163.578 352.401C166.955 359.24 168.938 366.699 169.41 374.332L170.539 392.629L171.669 374.331C172.139 366.698 174.122 359.24 177.499 352.4C181.407 344.487 183.441 335.762 183.441 326.914V66.3811ZM98.9595 67.0264C102.867 74.9395 104.901 83.6655 104.901 92.5124V300.783C104.901 309.631 102.867 318.356 98.9595 326.27C95.5825 333.109 93.5996 340.568 93.1279 348.2L91.999 366.498L90.8701 348.2C90.3984 340.568 88.4155 333.109 85.0385 326.27C81.1309 318.356 79.0972 309.631 79.0972 300.783V92.5124C79.0972 83.6655 81.1309 74.9395 85.0385 67.0264C88.4155 60.1863 90.3984 52.728 90.8701 45.0954L91.999 26.7975L93.1279 45.0954C93.5996 52.728 95.5825 60.1863 98.9595 67.0264ZM65.6309 118.643C65.6309 109.795 63.5972 101.07 59.6896 93.1575C56.3126 86.3169 54.3295 78.8586 53.8584 71.226L52.7291 52.9282L51.5998 71.226C51.1287 78.8586 49.1455 86.3169 45.7683 93.1575C41.8613 101.07 39.8273 109.795 39.8273 118.643V274.652C39.8273 283.499 41.8613 292.225 45.7683 300.138C49.1455 306.979 51.1287 314.437 51.5998 322.069L52.7291 340.367L53.8584 322.069C54.3295 314.437 56.3126 306.979 59.6896 300.138C63.5972 292.225 65.6309 283.499 65.6309 274.652V118.643ZM20.4199 145.418C24.3269 153.332 26.361 162.057 26.361 170.905V222.391C26.361 231.238 24.3269 239.964 20.4199 247.876C17.0427 254.717 15.0596 262.175 14.5885 269.808L13.4592 288.106L12.3299 269.808C11.8588 262.175 9.87562 254.717 6.49841 247.876C2.59142 239.964 0.557373 231.238 0.557373 222.391V170.905C0.557373 162.057 2.59142 153.332 6.49841 145.418C9.87562 138.579 11.8588 131.12 12.3299 123.488L13.4592 105.19L14.5885 123.488C15.0596 131.12 17.0427 138.579 20.4199 145.418ZM138.229 40.8955C142.137 48.8086 144.171 57.5342 144.171 66.3813V326.914C144.171 335.762 142.137 344.487 138.229 352.4C134.852 359.24 132.87 366.698 132.398 374.331L131.269 392.629L130.14 374.331C129.668 366.698 127.685 359.24 124.308 352.4C120.401 344.487 118.367 335.762 118.367 326.914V66.3813C118.367 57.5342 120.401 48.8086 124.308 40.8955C127.685 34.0554 129.668 26.597 130.14 18.9645L131.269 0.666626L132.398 18.9645C132.87 26.597 134.852 34.0554 138.229 40.8955ZM216.769 40.8955C220.677 48.8086 222.711 57.5342 222.711 66.3813V326.914C222.711 335.762 220.677 344.487 216.769 352.4C213.392 359.24 211.409 366.698 210.938 374.331L209.809 392.629L208.68 374.331C208.208 366.698 206.225 359.24 202.848 352.4C198.941 344.487 196.907 335.762 196.907 326.914V66.3813C196.907 57.5342 198.941 48.8086 202.848 40.8955C206.225 34.0554 208.208 26.597 208.68 18.9645L209.809 0.666626L210.938 18.9645C211.409 26.597 213.392 34.0554 216.769 40.8955ZM261.98 92.5124C261.98 83.6655 259.947 74.9395 256.039 67.0264C252.662 60.1863 250.679 52.728 250.208 45.0954L249.079 26.7975L247.95 45.0954C247.478 52.728 245.495 60.1863 242.118 67.0264C238.211 74.9395 236.177 83.6655 236.177 92.5124V300.783C236.177 309.631 238.211 318.356 242.118 326.27C245.495 333.109 247.478 340.568 247.95 348.2L249.079 366.498L250.208 348.2C250.679 340.568 252.662 333.109 256.039 326.27C259.947 318.356 261.98 309.631 261.98 300.783V92.5124ZM295.309 93.1575C299.217 101.07 301.25 109.795 301.25 118.643V274.652C301.25 283.499 299.217 292.225 295.309 300.138C291.932 306.979 289.949 314.437 289.478 322.069L288.349 340.367L287.22 322.069C286.748 314.437 284.765 306.979 281.388 300.138C277.481 292.225 275.447 283.499 275.447 274.652V118.643C275.447 109.795 277.481 101.07 281.388 93.1575C284.765 86.3169 286.748 78.8586 287.22 71.226L288.349 52.9282L289.478 71.226C289.949 78.8586 291.932 86.3169 295.309 93.1575ZM340.52 170.905C340.52 162.057 338.487 153.332 334.579 145.418C331.202 138.579 329.219 131.12 328.747 123.488L327.619 105.19L326.49 123.488C326.018 131.12 324.035 138.579 320.658 145.418C316.751 153.332 314.717 162.057 314.717 170.905V222.391C314.717 231.238 316.751 239.964 320.658 247.876C324.035 254.717 326.018 262.175 326.49 269.808L327.619 288.106L328.747 269.808C329.219 262.175 331.202 254.717 334.579 247.876C338.487 239.964 340.52 231.238 340.52 222.391V170.905Z" fill="#E0E7FF"/>
<path d="M528.724 138.514L501.799 147.999C499.351 132.395 486.194 110.977 455.904 110.977C431.426 110.977 413.986 126.887 413.986 147.081C413.986 162.685 423.471 174.618 441.829 178.596L474.262 185.633C510.366 193.588 530.56 216.23 530.56 246.52C530.56 280.177 501.799 310.773 455.598 310.773C403.277 310.773 378.494 277.117 374.517 246.214L403.277 237.035C405.419 261.207 422.553 283.542 455.292 283.542C485.277 283.542 499.963 267.938 499.963 248.968C499.963 233.364 489.254 219.901 467.53 215.312L436.628 208.58C405.725 201.849 383.696 181.655 383.696 149.223C383.696 115.261 415.21 84.6639 455.292 84.6639C504.246 84.6639 523.828 114.955 528.724 138.514Z" fill="#E0E7FF"/>
<path d="M615.315 181.043C592.061 181.043 570.644 198.177 570.644 232.446C570.644 266.102 591.755 284.154 615.621 284.154C643.158 284.154 653.255 265.49 656.62 253.863L682.016 264.878C674.978 285.99 653.867 310.773 615.621 310.773C572.785 310.773 541.271 277.117 541.271 232.446C541.271 186.551 573.397 154.424 615.315 154.424C654.478 154.424 674.672 178.902 680.792 201.237L654.784 212.252C651.113 197.872 640.404 181.043 615.315 181.043Z" fill="#E0E7FF"/>
<path d="M731.972 306.184H703.517V159.014H731.972V306.184ZM697.092 103.328C697.092 91.7011 706.271 82.5221 717.591 82.5221C729.218 82.5221 738.397 91.7011 738.397 103.328C738.397 114.649 729.218 123.828 717.591 123.828C706.271 123.828 697.092 114.649 697.092 103.328Z" fill="#E0E7FF"/>
<path d="M759.487 266.714C759.487 240.401 778.763 225.714 804.158 222.043L843.934 216.23C852.807 215.006 855.255 210.416 855.255 205.215C855.255 190.834 845.77 178.902 823.434 178.902C803.24 178.902 791.92 191.446 790.084 208.58L762.547 202.155C765.607 174.006 791.002 154.424 822.822 154.424C866.882 154.424 884.016 179.514 884.016 208.274V282.012C884.016 294.863 885.239 302.512 885.851 306.184H857.702C857.091 302.512 856.173 297.005 856.173 286.296C849.747 296.699 835.061 310.773 808.748 310.773C778.763 310.773 759.487 289.967 759.487 266.714ZM812.725 286.602C836.285 286.602 855.255 275.281 855.255 243.155V236.423L810.278 243.155C798.039 244.99 788.86 252.028 788.86 265.184C788.86 276.199 798.039 286.602 812.725 286.602Z" fill="#E0E7FF"/>
</svg>
