<svg width="302" height="67" viewBox="0 0 302 67" fill="none" xmlns="http://www.w3.org/2000/svg">
<g clip-path="url(#clip0_301_200)">
<path d="M96.5954 27.5549V24.1769L111.924 5.61987H97.0779V1.57388H117.863V4.95187L102.534 23.5089H117.863V27.5549H96.5954ZM123.584 27.5549V1.57388H142.847V5.65688H128.149V12.4119H141.177V16.4939H128.149V23.4719H143.033V27.5549H123.584ZM148.449 27.5549V1.57388H158.693C161.711 1.57388 164.112 2.36588 165.893 3.94888C167.675 5.53288 168.565 7.66087 168.565 10.3329C168.565 13.1289 167.576 15.3069 165.596 16.8659C163.641 18.4249 161.167 19.2039 158.173 19.2039H153.014V27.5549H148.449ZM153.014 15.0839H158.322C160.029 15.0839 161.39 14.6509 162.404 13.7849C163.419 12.9189 163.926 11.7809 163.926 10.3699C163.926 8.88587 163.419 7.74787 162.404 6.95587C161.414 6.13887 160.054 5.73088 158.322 5.73088H153.014V15.0839ZM173.24 27.5549V1.57388H177.806V12.3749H190.202V1.57388H194.768V27.5549H190.202V16.6059H177.806V27.5549H173.24ZM209.086 27.5549V17.3109L198.767 1.57388H204.149L211.424 13.0799L218.773 1.57388H224.006L213.688 17.1999V27.5549H209.086ZM228.008 27.5549V1.57388H239.588C242.607 1.57388 244.97 2.32888 246.677 3.83788C248.384 5.32288 249.238 7.32688 249.238 9.85088C249.238 11.9049 248.681 13.5989 247.568 14.9359C246.454 16.2469 244.945 17.1749 243.04 17.7189L250.055 27.5549H244.673L238.215 18.4989H232.573V27.5549H228.008ZM232.573 14.4529H239.254C240.887 14.4529 242.186 14.0569 243.151 13.2649C244.116 12.4739 244.599 11.3969 244.599 10.0359C244.599 8.65087 244.128 7.58687 243.188 6.84387C242.248 6.10187 240.924 5.73088 239.217 5.73088H232.573V14.4529ZM265.482 27.9629C262.043 27.9629 259.333 26.9859 257.354 25.0309C255.399 23.0759 254.421 20.2429 254.421 16.5319V1.57388H258.987V16.3459C258.987 18.7209 259.568 20.5519 260.731 21.8389C261.894 23.1259 263.502 23.7689 265.556 23.7689C267.61 23.7689 269.206 23.1509 270.344 21.9129C271.507 20.6759 272.089 18.8819 272.089 16.5319V1.57388H276.654V16.3089C276.654 20.0949 275.664 22.9899 273.685 24.9939C271.705 26.9729 268.971 27.9629 265.482 27.9629ZM292.014 27.9259C287.881 27.9259 284.269 26.5399 281.176 23.7689L283.922 20.5029C286.521 22.7549 289.255 23.8809 292.125 23.8809C293.535 23.8809 294.649 23.5839 295.465 22.9899C296.307 22.3709 296.727 21.5549 296.727 20.5399C296.727 19.5749 296.331 18.8079 295.54 18.2389C294.748 17.6449 293.189 17.0759 290.863 16.5319C287.844 15.8139 285.642 14.9109 284.256 13.8219C282.896 12.7089 282.215 11.0139 282.215 8.73688C282.215 6.50988 283.044 4.70387 284.702 3.31787C286.36 1.90787 288.488 1.20288 291.086 1.20288C294.649 1.20288 297.791 2.29187 300.513 4.46887L298.064 7.92088C295.663 6.13888 293.313 5.24788 291.012 5.24788C289.7 5.24788 288.661 5.54487 287.894 6.13887C287.151 6.73287 286.78 7.48788 286.78 8.40288C286.78 9.41788 287.189 10.2099 288.005 10.7789C288.846 11.3229 290.492 11.8919 292.942 12.4859C295.812 13.1789 297.915 14.1069 299.251 15.2699C300.612 16.4329 301.293 18.0659 301.293 20.1689C301.293 22.5689 300.439 24.4619 298.732 25.8479C297.024 27.2329 294.785 27.9259 292.014 27.9259ZM110.291 66.9567C106.53 66.9567 103.388 65.6707 100.864 63.0967C98.3399 60.4987 97.0779 57.3067 97.0779 53.5207C97.0779 49.7597 98.3399 46.5807 100.864 43.9827C103.388 41.3847 106.592 40.0857 110.477 40.0857C112.729 40.0857 114.634 40.4317 116.193 41.1247C117.776 41.8177 119.261 42.8197 120.647 44.1307L117.715 47.5087C115.389 45.3557 112.964 44.2797 110.44 44.2797C107.965 44.2797 105.912 45.1697 104.279 46.9517C102.67 48.7337 101.866 50.9227 101.866 53.5207C101.866 56.0947 102.683 58.2847 104.316 60.0907C105.949 61.8727 107.99 62.7627 110.44 62.7627C111.924 62.7627 113.236 62.4907 114.374 61.9467C115.512 61.3777 116.688 60.5237 117.9 59.3857L120.832 62.3547C119.372 63.8887 117.826 65.0397 116.193 65.8067C114.56 66.5737 112.593 66.9567 110.291 66.9567ZM123.404 66.5117L134.835 40.3447H139.067L150.498 66.5117H145.673L143.038 60.2387H130.753L128.08 66.5117H123.404ZM132.423 56.1937H141.368L136.877 45.8007L132.423 56.1937ZM154.953 66.5117V40.5307H165.197C168.216 40.5307 170.616 41.3227 172.398 42.9057C174.179 44.4897 175.07 46.6177 175.07 49.2897C175.07 52.0857 174.08 54.2637 172.101 55.8227C170.146 57.3817 167.672 58.1607 164.678 58.1607H159.519V66.5117H154.953ZM159.519 54.0407H164.826C166.534 54.0407 167.895 53.6077 168.909 52.7417C169.923 51.8757 170.431 50.7377 170.431 49.3267C170.431 47.8427 169.923 46.7047 168.909 45.9127C167.919 45.0957 166.558 44.6877 164.826 44.6877H159.519V54.0407ZM180.005 66.5117V40.5307H184.571V66.5117H180.005ZM197.909 66.5117V44.7617H189.67V40.5307H210.751V44.7617H202.512V66.5117H197.909ZM210.031 66.5117L221.463 40.3447H225.694L237.126 66.5117H232.301L229.665 60.2387H217.38L214.708 66.5117H210.031ZM219.05 56.1937H227.995L223.504 45.8007L219.05 56.1937ZM241.581 66.5117V40.5307H246.146V62.3547H259.805V66.5117H241.581Z" fill="white"/>
<path d="M45.5792 0.473633H4.80244C3.69787 0.473633 2.80244 1.36906 2.80244 2.47363V2.75786C2.80244 3.86243 3.69787 4.75786 4.80244 4.75786H39.9329L2.70232 61.2806C1.8264 62.6104 2.78018 64.3808 4.37255 64.3808H4.45924C5.13346 64.3808 5.7623 64.0411 6.13191 63.4772L46.4155 2.02185C46.8514 1.35681 46.3744 0.473633 45.5792 0.473633Z" fill="white"/>
<path d="M45.1613 14.9819L16.0132 61.3158C15.1753 62.6477 16.1326 64.3808 17.7061 64.3808H48.1528C49.2574 64.3808 50.1528 63.4854 50.1528 62.3808V62.1945C50.1528 61.0899 49.2574 60.1945 48.1528 60.1945H22.78L40.3308 32.3717C40.3308 56.5721 62.5858 66.0872 80.5248 63.8229C81.4924 63.7007 82.1951 62.8623 82.1951 61.8871V61.6132C82.1951 60.3693 81.0723 59.4255 79.8321 59.5227C67.7994 60.466 45.1613 54.6315 45.1613 30.4063C45.1613 12.9425 62.062 2.63248 79.9452 4.64758C81.125 4.78051 82.1951 3.88214 82.1951 2.69493C82.1951 1.70184 81.4358 0.870948 80.4453 0.799816C63.342 -0.428388 53.5734 3.29843 45.1613 14.9819Z" fill="white"/>
</g>
<defs>
<clipPath id="clip0_301_200">
<rect width="301.34" height="67" fill="white" transform="translate(0.660309)"/>
</clipPath>
</defs>
</svg>
